<?xml version="1.0" standalone="no"?>
<!DOCTYPE svg PUBLIC "-//W3C//DTD SVG 20010904//EN"
 "http://www.w3.org/TR/2001/REC-SVG-20010904/DTD/svg10.dtd">
<svg version="1.0" xmlns="http://www.w3.org/2000/svg"
 width="1114.000000pt" height="591.000000pt" viewBox="0 0 1114.000000 591.000000"
 preserveAspectRatio="xMidYMid meet">

<g transform="translate(0.000000,591.000000) scale(0.100000,-0.100000)"
fill="#000000" stroke="none">
<path d="M2783 5903 c1533 -2 4041 -2 5575 0 1533 1 278 2 -2788 2 -3066 0
-4321 -1 -2787 -2z"/>
<path d="M5640 5873 c-14 -2 -79 -18 -145 -35 -135 -34 -211 -77 -308 -172
-67 -66 -152 -232 -196 -382 -27 -94 -38 -152 -87 -461 -14 -87 -22 -113 -34
-113 -61 -1 -507 -45 -660 -66 -211 -28 -298 -68 -396 -179 -40 -46 -62 -64
-73 -60 -45 18 -467 120 -620 151 -191 39 -435 74 -510 74 -47 0 -146 24 -166
40 -9 7 -230 70 -247 70 -6 0 -245 -292 -803 -985 -426 -527 -650 -805 -695
-860 -165 -203 -415 -513 -427 -532 -13 -19 -13 -26 3 -58 20 -43 17 -41 179
-103 126 -48 332 -127 905 -347 416 -160 927 -356 1200 -460 135 -52 387 -148
560 -215 173 -67 425 -163 560 -215 135 -52 369 -142 520 -200 151 -58 424
-163 605 -232 182 -69 349 -134 373 -144 l43 -19 -20 -29 c-38 -53 -71 -135
-71 -177 0 -55 24 -84 80 -94 102 -20 412 -33 635 -26 233 6 307 14 328 35 18
18 12 106 -13 199 -13 48 -19 87 -14 92 5 5 63 30 129 55 66 26 212 83 323
127 112 43 205 78 207 76 2 -3 141 -375 151 -407 3 -8 8 -11 13 -5 7 8 56 130
112 280 11 30 24 54 29 54 4 0 52 -19 106 -41 282 -118 314 -129 314 -114 0
17 -64 218 -104 324 -25 69 -46 128 -46 132 0 4 35 21 78 37 75 30 367 144
767 302 110 43 310 121 445 173 237 92 767 299 1210 473 118 47 325 128 460
181 515 202 484 189 494 216 7 20 5 31 -15 55 -13 16 -303 585 -644 1265 -366
731 -626 1237 -634 1237 -16 0 -238 -50 -359 -82 -46 -12 -93 -29 -105 -38
-14 -11 -58 -22 -117 -29 -366 -46 -955 -176 -1495 -331 -38 -11 -90 -25 -115
-31 l-45 -11 -73 54 c-39 30 -102 71 -139 92 -169 94 -488 205 -735 256 -32 6
-58 13 -58 14 0 2 15 36 34 77 18 41 43 106 56 144 12 39 29 85 37 104 23 52
29 251 10 327 -48 186 -168 344 -312 409 -183 84 -408 143 -485 128z m298
-525 c64 -16 120 -54 142 -97 37 -74 63 -191 57 -261 -11 -113 -25 -214 -37
-246 -11 -30 -11 -30 -73 -27 -34 2 -91 9 -127 14 -36 6 -161 13 -277 16 -146
4 -213 9 -213 17 0 30 32 170 55 241 54 164 159 304 257 338 52 19 153 21 216
5z m4180 -1843 c331 -663 602 -1212 602 -1220 0 -8 -14 -17 -37 -21 -35 -7
-40 -4 -76 37 -101 114 -164 240 -154 312 3 20 1 37 -3 37 -26 0 -318 593
-718 1460 -113 245 -205 453 -204 462 1 24 -53 54 -125 69 -69 14 -73 24 -11
34 22 4 55 13 72 21 17 7 36 13 41 14 6 0 281 -542 613 -1205z m-7850 1126 c9
-6 -83 -127 -335 -442 -192 -239 -403 -499 -469 -579 -491 -591 -762 -930
-791 -990 -34 -72 -81 -137 -161 -225 -49 -53 -56 -57 -80 -49 -14 5 -26 13
-26 18 0 5 407 519 905 1142 647 811 910 1133 924 1133 11 0 26 -3 33 -8z
m7176 -17 l49 -19 174 -380 c294 -643 588 -1257 719 -1498 20 -37 35 -69 33
-71 -2 -2 -132 -29 -289 -60 -472 -95 -1106 -241 -1300 -300 -25 -8 -99 -29
-165 -46 -66 -18 -185 -52 -265 -77 -80 -24 -158 -48 -175 -53 -118 -34 -582
-190 -675 -228 -14 -5 -43 -17 -65 -25 -362 -140 -670 -281 -920 -420 -141
-78 -390 -248 -500 -340 -204 -172 -363 -390 -406 -556 -7 -28 -16 -51 -21
-51 -4 0 -8 306 -8 679 l0 679 138 7 c146 7 289 25 412 51 388 83 728 213 876
334 87 71 167 190 193 288 13 47 25 55 176 115 79 32 210 64 500 124 159 33
322 79 485 138 161 58 312 91 564 120 137 16 176 35 286 137 74 68 64 66 -30
-5 -96 -74 -153 -97 -268 -108 -53 -5 -119 -13 -147 -18 -27 -6 -90 -17 -140
-26 -49 -9 -189 -49 -310 -90 -187 -63 -404 -122 -545 -150 -192 -37 -347 -84
-537 -162 -10 -4 -13 12 -13 60 0 162 -63 322 -176 445 -42 46 -61 73 -52 76
7 2 24 7 38 11 14 4 176 11 360 15 387 8 513 24 1060 132 117 23 367 116 482
179 40 22 92 45 116 52 23 6 42 15 42 19 0 22 -67 2 -175 -52 -120 -60 -315
-140 -390 -159 -79 -20 -414 -80 -645 -115 -218 -33 -256 -36 -520 -40 -163
-2 -312 -9 -347 -16 l-62 -12 -53 44 c-86 72 -157 120 -242 164 l-79 42 49 22
c62 27 229 75 314 90 36 6 152 40 258 76 174 58 200 64 275 64 45 0 124 7 176
15 110 18 430 103 696 186 105 32 269 81 365 108 190 54 240 72 283 103 38 27
28 34 -14 9 -52 -30 -137 -60 -324 -112 -93 -26 -244 -71 -335 -99 -160 -51
-187 -58 -355 -99 -44 -11 -127 -31 -184 -46 -71 -18 -150 -29 -250 -35 -121
-7 -163 -14 -246 -40 -55 -18 -107 -35 -115 -37 -8 -3 10 10 40 28 69 42 142
114 169 167 16 31 21 60 21 116 0 87 -20 143 -81 223 -45 60 -47 69 -16 76 12
2 99 26 192 51 476 132 907 231 1210 280 251 40 299 45 475 42 134 -2 174 -6
214 -22z m-6699 -18 c265 -32 498 -79 820 -166 197 -53 182 -44 153 -83 -34
-44 -68 -112 -68 -136 0 -24 31 -43 57 -35 10 4 36 15 58 25 70 32 156 49 275
55 l115 6 240 -82 c380 -129 469 -161 483 -174 20 -19 17 -823 -3 -975 -31
-229 -78 -468 -95 -485 -9 -9 -195 8 -592 53 -147 16 -405 -5 -470 -40 -19
-10 -34 -85 -23 -118 3 -12 4 -21 0 -21 -11 0 -90 42 -131 71 -23 16 -68 38
-100 50 -67 25 -95 41 -144 83 -55 47 -127 74 -225 85 -105 11 -282 64 -545
163 -34 13 -89 23 -145 26 -108 6 -338 -15 -362 -33 -26 -19 -11 -28 23 -14
19 8 104 12 239 13 l210 1 80 -36 c124 -56 389 -136 490 -149 121 -15 146 -24
217 -80 33 -27 94 -63 136 -81 43 -17 102 -48 132 -68 30 -20 78 -47 106 -60
47 -21 56 -31 100 -110 85 -152 91 -160 148 -176 62 -17 192 -42 266 -50 30
-4 71 -11 90 -15 19 -5 90 -19 158 -31 67 -12 122 -25 122 -29 0 -26 -133
-190 -204 -252 l-53 -47 -54 26 c-620 289 -1538 577 -2549 797 -209 45 -801
160 -900 174 -32 4 -55 12 -55 19 0 7 211 270 470 584 259 315 604 740 767
943 260 324 302 372 330 377 63 12 314 9 433 -5z m2135 -442 c0 -80 -4 -123
-10 -119 -9 5 -568 199 -612 212 -10 3 -18 9 -18 14 0 9 111 14 428 17 l212 2
0 -126z m620 116 c263 -23 406 -49 633 -115 84 -24 166 -49 182 -55 57 -21
165 -73 165 -79 0 -3 -55 -23 -123 -44 -67 -21 -239 -76 -382 -122 -381 -123
-328 -117 -479 -59 -91 35 -130 55 -136 69 -10 27 -24 390 -16 404 9 13 12 13
156 1z m1070 -303 c30 -24 61 -56 69 -70 13 -24 12 -29 -5 -48 -44 -48 -160
-90 -374 -133 -211 -43 -369 -66 -502 -73 l-128 -6 0 46 0 46 64 20 c83 25
649 206 741 236 39 13 72 24 75 24 3 1 30 -18 60 -42z m-1027 -209 l78 -30 -3
-47 -3 -46 -125 0 -125 0 -3 97 -3 98 53 -21 c29 -12 88 -35 131 -51z m1073
-283 c-23 -17 -42 -19 -51 -6 -5 9 18 17 55 19 11 1 10 -3 -4 -13z m-1033 -72
l37 -6 0 -428 c0 -235 -4 -430 -8 -433 -15 -9 -261 -30 -268 -23 -4 4 1 73 12
154 15 117 19 213 19 452 l0 303 85 -6 c47 -4 102 -10 123 -13z m188 -22 c52
-11 132 -25 178 -31 110 -15 167 -37 279 -110 249 -161 306 -287 192 -430 -48
-60 -195 -129 -400 -185 -89 -25 -358 -85 -380 -85 -11 0 -15 842 -3 853 10
11 33 9 134 -12z m-4881 -736 c1274 -230 2284 -505 3100 -843 101 -42 282
-122 289 -128 17 -15 -174 -108 -253 -124 -284 -57 -622 105 -804 385 -28 44
-54 85 -56 90 -2 6 -7 7 -11 3 -15 -14 25 -142 69 -217 65 -114 159 -219 249
-282 43 -29 104 -74 136 -99 32 -25 100 -66 152 -92 165 -82 276 -113 542
-151 160 -22 318 19 475 125 l74 50 82 -55 c270 -185 487 -411 591 -617 43
-85 84 -221 92 -304 3 -36 9 -66 12 -66 4 0 12 39 19 88 27 200 113 361 297
551 242 250 614 484 1140 716 798 352 1968 690 3197 924 l146 28 7 -46 c12
-84 74 -197 159 -289 21 -23 37 -45 34 -48 -3 -3 -57 -25 -119 -49 -63 -23
-325 -125 -584 -225 -258 -99 -704 -271 -990 -382 -286 -110 -700 -270 -920
-356 -600 -233 -675 -262 -684 -262 -4 0 -25 33 -46 73 -53 102 -109 184 -168
244 l-51 53 33 6 c19 4 29 10 23 16 -25 25 -389 -165 -590 -309 -35 -25 -61
-47 -58 -50 3 -3 30 11 61 32 54 37 56 38 70 19 29 -37 147 -283 143 -300 -2
-11 -115 -60 -383 -165 -208 -82 -383 -155 -387 -162 -10 -15 -3 -51 33 -157
16 -47 29 -88 29 -91 0 -20 -721 -15 -771 5 -24 10 -13 49 37 137 44 75 51
102 36 127 -5 7 -49 28 -98 48 -176 69 -713 278 -924 359 -118 45 -480 185
-805 310 -324 125 -862 330 -1195 457 -333 126 -661 252 -730 279 -153 59
-715 274 -940 359 -91 35 -167 64 -168 66 -2 1 26 37 62 80 78 91 132 171 154
225 18 47 14 47 192 14z m4555 -781 c72 -3 140 -7 153 -10 l22 -4 -1 -683 c-1
-563 -3 -674 -13 -637 -72 259 -304 539 -643 777 -51 35 -93 67 -93 70 0 3 27
35 61 71 98 107 194 264 250 411 9 23 13 23 72 17 34 -4 121 -9 192 -12z"/>
<path d="M9285 2706 c-73 -34 -303 -112 -398 -137 -45 -11 -125 -36 -178 -54
-53 -18 -144 -45 -202 -59 -59 -14 -151 -42 -204 -62 -106 -40 -224 -74 -258
-74 -11 0 -92 -18 -180 -39 -88 -22 -200 -47 -250 -56 -216 -40 -299 -60 -484
-120 -355 -115 -476 -153 -508 -160 -18 -3 -33 -10 -33 -15 0 -27 46 -16 510
133 275 87 302 95 460 123 52 9 160 32 240 51 80 18 194 43 254 54 60 11 162
41 228 65 66 25 169 56 228 69 60 14 146 39 191 55 46 17 133 44 194 60 173
46 357 113 428 157 64 40 42 45 -38 9z"/>
<path d="M2537 4193 c-4 -6 6 -9 26 -7 17 3 103 0 190 -6 130 -8 172 -15 245
-39 180 -60 330 -100 416 -111 108 -13 133 -26 210 -102 77 -76 118 -88 440
-128 112 -14 154 -28 293 -96 118 -59 194 -84 255 -84 67 0 49 17 -30 29 -58
8 -103 24 -187 65 -175 86 -202 93 -470 127 -170 21 -216 38 -295 112 -75 71
-120 91 -230 101 -60 6 -298 69 -380 101 -19 8 -53 19 -75 26 -52 15 -400 25
-408 12z"/>
<path d="M2320 3782 c0 -15 39 -22 134 -22 103 0 243 -30 297 -63 20 -12 72
-43 115 -70 150 -90 241 -116 449 -123 l150 -6 86 -54 c117 -73 133 -79 303
-109 216 -38 279 -57 401 -118 61 -30 127 -62 149 -71 46 -19 165 -21 189 -3
15 10 3 12 -70 12 l-88 0 -145 71 c-146 71 -191 86 -395 124 -60 12 -133 26
-161 31 -33 6 -91 33 -160 74 -110 66 -159 81 -231 73 -53 -7 -207 10 -272 28
-60 17 -195 84 -281 139 -72 46 -168 72 -288 80 -53 3 -116 8 -139 11 -24 3
-43 1 -43 -4z"/>
<path d="M2136 3282 c-3 -5 96 -12 219 -15 226 -7 377 -24 470 -54 28 -8 111
-46 185 -84 94 -47 173 -78 260 -103 69 -19 163 -49 210 -66 116 -44 161 -56
275 -80 54 -11 112 -27 129 -36 98 -50 178 -70 404 -104 150 -22 211 -25 196
-10 -5 5 -57 17 -114 25 -216 32 -370 66 -434 95 -62 29 -114 44 -241 70 -33
7 -114 32 -180 56 -66 24 -172 57 -235 74 -75 21 -164 55 -255 99 -202 98
-250 113 -424 130 -123 13 -458 15 -465 3z"/>
</g>
</svg>
