<svg width="152" height="47" viewBox="0 0 152 47" fill="none" xmlns="http://www.w3.org/2000/svg">
<path d="M13.1728 34.1268C12.1328 32.9093 10.3969 31.6072 8.71573 30.7833C7.01818 29.9513 5.40577 29.4893 3.5751 29.3106C3.21415 29.2757 2.9149 29.2431 2.91012 29.2385C2.90545 29.2385 2.91479 25.4808 2.93345 20.8987L2.96425 12.5677L3.29755 12.6003C5.34407 12.8027 7.62825 13.5737 9.35651 14.6484C10.846 15.5743 12.384 17.0042 13.3646 18.3744L13.6114 18.7192V26.6327C13.6114 30.985 13.5927 34.5454 13.5703 34.5447C13.547 34.544 13.3684 34.3558 13.1728 34.1268ZM14.8681 26.6127V18.6661L15.3447 18.0312C15.9531 17.2206 17.177 15.9994 17.9863 15.3957C20.1496 13.7812 22.4963 12.869 25.1904 12.5945L25.5322 12.5596V20.9022V29.245L25.1357 29.2822C21.3844 29.6303 18.1322 31.1735 15.5884 33.8123L14.8681 34.5596V26.6127ZM17.1923 34.0193C18.6647 32.642 20.6138 31.5476 22.5718 30.9983C23.5963 30.711 24.9287 30.5104 25.8132 30.5104C26.2769 30.5104 26.5341 30.4104 26.6792 30.1728C26.7884 29.9937 26.7896 29.9167 26.7898 23.1566L26.79 16.3207L26.9951 16.3579C27.1078 16.3812 27.4278 16.4696 27.706 16.558L28.2119 16.7185V25.2498C28.2119 29.942 28.1932 33.7811 28.1701 33.7811C28.1468 33.7811 27.8087 33.709 27.4182 33.6206C25.8748 33.2739 24.6038 33.1548 22.9346 33.1997C20.9099 33.2555 19.3364 33.537 17.4659 34.1815L16.7549 34.4265L17.1923 34.0193ZM10.9579 34.152C10.1811 33.8746 8.8982 33.5477 8.03213 33.4068C6.85454 33.216 6.04212 33.1653 4.59885 33.1974C3.16483 33.2276 2.29743 33.3277 1.11415 33.5954C0.783279 33.6699 0.444898 33.7467 0.362181 33.763L0.211914 33.7955L0.212171 25.2414L0.212451 16.6871L0.854796 16.501C1.20806 16.3986 1.52789 16.3032 1.56549 16.2916C1.61985 16.2683 1.63385 17.662 1.63385 23.1198C1.63385 30.5781 1.61752 30.1624 1.93667 30.3715C2.04774 30.4436 2.27851 30.4762 2.93751 30.5158C5.5566 30.6647 8.04174 31.5415 10.0706 33.0336C10.5081 33.3553 11.5581 34.239 11.6182 34.336C11.6602 34.4035 11.6322 34.3965 10.9581 34.1545L10.9579 34.152Z" fill="url(#paint0_linear_336_601)"/>
<path d="M145.523 24.4596L151.963 32.9996H148.827L143.787 26.2516H143.703L141.631 28.3236V32.9996H139.083V12.5596H141.631V25.0756H141.715L147.903 18.7196H151.319L145.523 24.4596Z" fill="url(#paint1_linear_336_601)"/>
<path d="M135.658 25.8595V26.7555H124.85C125 28.0621 125.485 29.0795 126.306 29.8075C127.128 30.5355 128.369 30.8995 130.03 30.8995C131.71 30.8995 133.26 30.4328 134.678 29.4995H134.818V31.9635C133.25 32.8408 131.402 33.2795 129.274 33.2795C127.165 33.2795 125.466 32.6355 124.178 31.3475C122.909 30.0408 122.274 28.2861 122.274 26.0835C122.274 23.8621 122.844 22.0328 123.982 20.5955C125.121 19.1581 126.782 18.4395 128.966 18.4395C131.15 18.4395 132.812 19.1581 133.95 20.5955C135.089 22.0328 135.658 23.7875 135.658 25.8595ZM124.85 24.6835H133.11C133.036 23.3395 132.578 22.3221 131.738 21.6315C130.917 20.9408 129.993 20.5955 128.966 20.5955C127.94 20.5955 127.016 20.9408 126.194 21.6315C125.373 22.3221 124.925 23.3395 124.85 24.6835Z" fill="url(#paint2_linear_336_601)"/>
<path d="M119.9 20.9036H115.84V29.3596C115.84 30.1436 116.055 30.629 116.484 30.8156C116.839 30.965 117.296 31.0396 117.856 31.0396C118.416 31.0396 119.032 30.8903 119.704 30.5916H119.9V32.6636C119.116 33.0743 118.276 33.2796 117.38 33.2796C114.655 33.2796 113.292 32.0476 113.292 29.5836V20.9036H110.632V20.7356L115.84 15.6396V18.7196H119.9V20.9036Z" fill="url(#paint3_linear_336_601)"/>
<path d="M94.4648 25.8595C94.4648 23.6381 95.1182 21.8461 96.4248 20.4835C97.7315 19.1208 99.4582 18.4395 101.605 18.4395C103.77 18.4395 105.506 19.1208 106.813 20.4835C108.138 21.8461 108.801 23.6381 108.801 25.8595C108.801 28.0808 108.138 29.8728 106.813 31.2355C105.506 32.5981 103.77 33.2795 101.605 33.2795C99.4582 33.2795 97.7315 32.5981 96.4248 31.2355C95.1182 29.8728 94.4648 28.0808 94.4648 25.8595ZM98.3848 29.6955C99.3182 30.5355 100.401 30.9555 101.633 30.9555C102.865 30.9555 103.938 30.5355 104.853 29.6955C105.786 28.8368 106.253 27.5581 106.253 25.8595C106.253 24.1421 105.786 22.8635 104.853 22.0235C103.938 21.1835 102.865 20.7635 101.633 20.7635C100.401 20.7635 99.3182 21.1835 98.3848 22.0235C97.4702 22.8635 97.0128 24.1421 97.0128 25.8595C97.0128 27.5581 97.4702 28.8368 98.3848 29.6955Z" fill="url(#paint4_linear_336_601)"/>
<path d="M88.2539 32.9992V18.7192H90.8019V32.9992H88.2539ZM90.9139 12.9512V15.6952H88.1699V12.9512H90.9139Z" fill="url(#paint5_linear_336_601)"/>
<path d="M83.5031 12.5596V32.9996H80.9551V12.5596H83.5031Z" fill="url(#paint6_linear_336_601)"/>
<path d="M65.6994 20.5116C67.0247 19.1302 68.5927 18.4396 70.4034 18.4396C72.214 18.4396 73.7914 19.1116 75.1354 20.4556C76.4981 21.7996 77.1794 23.6009 77.1794 25.8596C77.1794 28.1182 76.4981 29.9196 75.1354 31.2636C73.7914 32.6076 72.214 33.2796 70.4034 33.2796C68.5927 33.2796 67.0247 32.5889 65.6994 31.2076H65.6154L65.3074 32.9996H63.0674V12.5596H65.6154V20.5116H65.6994ZM70.0394 30.8996C71.4207 30.8996 72.5314 30.4609 73.3714 29.5836C74.2114 28.7062 74.6314 27.4649 74.6314 25.8596C74.6314 24.2542 74.2114 23.0129 73.3714 22.1356C72.5314 21.2582 71.4207 20.8196 70.0394 20.8196C68.3594 20.8196 66.8847 21.5196 65.6154 22.9196V28.7996C66.8847 30.1996 68.3594 30.8996 70.0394 30.8996Z" fill="url(#paint7_linear_336_601)"/>
<path d="M55.9883 32.9992V18.7192H58.5363V32.9992H55.9883ZM58.6483 12.9512V15.6952H55.9043V12.9512H58.6483Z" fill="url(#paint8_linear_336_601)"/>
<path d="M40.8439 20.5116C42.1692 19.1302 43.7372 18.4396 45.5479 18.4396C47.3586 18.4396 48.9359 19.1116 50.2799 20.4556C51.6426 21.7996 52.3239 23.6009 52.3239 25.8596C52.3239 28.1182 51.6426 29.9196 50.2799 31.2636C48.9359 32.6076 47.3586 33.2796 45.5479 33.2796C43.7372 33.2796 42.1692 32.5889 40.8439 31.2076H40.7599L40.4519 32.9996H38.2119V12.5596H40.7599V20.5116H40.8439ZM45.1839 30.8996C46.5652 30.8996 47.6759 30.4609 48.5159 29.5836C49.3559 28.7062 49.7759 27.4649 49.7759 25.8596C49.7759 24.2542 49.3559 23.0129 48.5159 22.1356C47.6759 21.2582 46.5652 20.8196 45.1839 20.8196C43.5039 20.8196 42.0292 21.5196 40.7599 22.9196V28.7996C42.0292 30.1996 43.5039 30.8996 45.1839 30.8996Z" fill="url(#paint9_linear_336_601)"/>
<defs>
<linearGradient id="paint0_linear_336_601" x1="14.2119" y1="12.5596" x2="14.2119" y2="34.5596" gradientUnits="userSpaceOnUse">
<stop stop-color="#4C4C4C"/>
<stop offset="1" stop-color="#737373"/>
</linearGradient>
<linearGradient id="paint1_linear_336_601" x1="97.4999" y1="4.99957" x2="97.4999" y2="35.9996" gradientUnits="userSpaceOnUse">
<stop stop-color="#4C4C4C"/>
<stop offset="1" stop-color="#737373"/>
</linearGradient>
<linearGradient id="paint2_linear_336_601" x1="97.5001" y1="4.99946" x2="97.5001" y2="35.9995" gradientUnits="userSpaceOnUse">
<stop stop-color="#4C4C4C"/>
<stop offset="1" stop-color="#737373"/>
</linearGradient>
<linearGradient id="paint3_linear_336_601" x1="97.4996" y1="4.99965" x2="97.4996" y2="35.9996" gradientUnits="userSpaceOnUse">
<stop stop-color="#4C4C4C"/>
<stop offset="1" stop-color="#737373"/>
</linearGradient>
<linearGradient id="paint4_linear_336_601" x1="97.4997" y1="4.99946" x2="97.4997" y2="35.9995" gradientUnits="userSpaceOnUse">
<stop stop-color="#4C4C4C"/>
<stop offset="1" stop-color="#737373"/>
</linearGradient>
<linearGradient id="paint5_linear_336_601" x1="97.5002" y1="4.99917" x2="97.5002" y2="35.9992" gradientUnits="userSpaceOnUse">
<stop stop-color="#4C4C4C"/>
<stop offset="1" stop-color="#737373"/>
</linearGradient>
<linearGradient id="paint6_linear_336_601" x1="97.4995" y1="4.99957" x2="97.4995" y2="35.9996" gradientUnits="userSpaceOnUse">
<stop stop-color="#4C4C4C"/>
<stop offset="1" stop-color="#737373"/>
</linearGradient>
<linearGradient id="paint7_linear_336_601" x1="97.4999" y1="4.99957" x2="97.4999" y2="35.9996" gradientUnits="userSpaceOnUse">
<stop stop-color="#4C4C4C"/>
<stop offset="1" stop-color="#737373"/>
</linearGradient>
<linearGradient id="paint8_linear_336_601" x1="97.5002" y1="4.99917" x2="97.5002" y2="35.9992" gradientUnits="userSpaceOnUse">
<stop stop-color="#4C4C4C"/>
<stop offset="1" stop-color="#737373"/>
</linearGradient>
<linearGradient id="paint9_linear_336_601" x1="97.4999" y1="4.99957" x2="97.4999" y2="35.9996" gradientUnits="userSpaceOnUse">
<stop stop-color="#4C4C4C"/>
<stop offset="1" stop-color="#737373"/>
</linearGradient>
</defs>
</svg>
